<svg xmlns="http://www.w3.org/2000/svg" xmlns:xlink="http://www.w3.org/1999/xlink" width="40" zoomAndPan="magnify" viewBox="0 0 30 30.000001" height="40" preserveAspectRatio="xMidYMid meet" version="1.0"><defs><clipPath id="a8fe8463c2"><path d="M 13 7 L 29.515625 7 L 29.515625 21 L 13 21 Z M 13 7 " clip-rule="nonzero"/></clipPath><clipPath id="9001d105d1"><path d="M 16 4.234375 L 24 4.234375 L 24 11 L 16 11 Z M 16 4.234375 " clip-rule="nonzero"/></clipPath><clipPath id="a268fbaf6f"><path d="M 4 19 L 17 19 L 17 23.832031 L 4 23.832031 Z M 4 19 " clip-rule="nonzero"/></clipPath><clipPath id="45a9f156dc"><path d="M 0.484375 17 L 6 17 L 6 19 L 0.484375 19 Z M 0.484375 17 " clip-rule="nonzero"/></clipPath></defs><g clip-path="url(#a8fe8463c2)"><path fill="#ffffff" d="M 15.945312 7.589844 L 13.472656 10.855469 C 13.28125 11.109375 13.332031 11.46875 13.582031 11.660156 L 17.046875 14.285156 C 17.300781 14.476562 17.660156 14.425781 17.851562 14.171875 L 18.804688 12.914062 L 19.378906 13.351562 C 19.171875 13.636719 19.226562 14.042969 19.511719 14.257812 L 27.597656 20.378906 C 28.085938 20.75 28.785156 20.65625 29.15625 20.164062 C 29.527344 19.671875 29.429688 18.976562 28.941406 18.605469 L 20.855469 12.480469 C 20.574219 12.265625 20.167969 12.320312 19.949219 12.601562 L 19.375 12.164062 L 20.328125 10.90625 C 20.519531 10.65625 20.46875 10.292969 20.214844 10.101562 L 16.75 7.476562 C 16.496094 7.285156 16.136719 7.335938 15.945312 7.589844 " fill-opacity="1" fill-rule="nonzero"/></g><path fill="#ffffff" d="M 11.863281 11.460938 L 10.800781 12.867188 C 10.664062 13.046875 10.699219 13.304688 10.878906 13.4375 L 16.066406 17.371094 C 16.246094 17.507812 16.503906 17.46875 16.640625 17.289062 L 17.707031 15.886719 C 17.839844 15.707031 17.804688 15.449219 17.625 15.3125 L 12.4375 11.382812 C 12.257812 11.246094 12 11.28125 11.863281 11.460938 " fill-opacity="1" fill-rule="nonzero"/><g clip-path="url(#9001d105d1)"><path fill="#ffffff" d="M 17.160156 4.472656 L 16.09375 5.878906 C 15.957031 6.058594 15.992188 6.3125 16.171875 6.449219 L 21.363281 10.378906 C 21.542969 10.515625 21.796875 10.480469 21.933594 10.300781 L 23 8.894531 C 23.136719 8.714844 23.101562 8.457031 22.921875 8.324219 L 17.730469 4.390625 C 17.550781 4.253906 17.296875 4.292969 17.160156 4.472656 " fill-opacity="1" fill-rule="nonzero"/></g><g clip-path="url(#a268fbaf6f)"><path fill="#ffffff" d="M 16.046875 21.539062 L 15.972656 21.539062 C 15.929688 20.488281 15.066406 19.652344 14.007812 19.652344 L 7.449219 19.652344 C 6.390625 19.652344 5.527344 20.488281 5.484375 21.539062 L 5.414062 21.539062 C 4.90625 21.539062 4.5 21.945312 4.5 22.453125 L 4.5 23.976562 L 16.960938 23.976562 L 16.960938 22.453125 C 16.960938 21.945312 16.550781 21.539062 16.046875 21.539062 " fill-opacity="1" fill-rule="nonzero"/></g><path fill="#ffffff" d="M 6.742188 16.683594 C 6.527344 16.898438 6.179688 16.898438 5.964844 16.683594 L 2.070312 12.789062 C 1.855469 12.574219 1.855469 12.230469 2.070312 12.015625 C 2.285156 11.800781 2.628906 11.800781 2.84375 12.015625 L 6.742188 15.910156 C 6.953125 16.125 6.953125 16.472656 6.742188 16.683594 " fill-opacity="1" fill-rule="nonzero"/><path fill="#ffffff" d="M 8.585938 15.011719 C 8.488281 15.109375 8.351562 15.171875 8.199219 15.171875 C 7.898438 15.171875 7.652344 14.925781 7.652344 14.625 L 7.652344 10.289062 C 7.652344 9.988281 7.898438 9.742188 8.199219 9.742188 C 8.503906 9.742188 8.746094 9.988281 8.746094 10.289062 L 8.746094 14.625 C 8.746094 14.773438 8.683594 14.910156 8.585938 15.011719 " fill-opacity="1" fill-rule="nonzero"/><g clip-path="url(#45a9f156dc)"><path fill="#ffffff" d="M 5.761719 18.566406 C 5.660156 18.664062 5.523438 18.726562 5.375 18.726562 L 1.039062 18.726562 C 0.734375 18.726562 0.492188 18.480469 0.492188 18.179688 C 0.492188 17.875 0.734375 17.632812 1.039062 17.632812 L 5.375 17.632812 C 5.675781 17.632812 5.921875 17.875 5.921875 18.179688 C 5.921875 18.328125 5.859375 18.464844 5.761719 18.566406 " fill-opacity="1" fill-rule="nonzero"/></g></svg>