<svg xmlns="http://www.w3.org/2000/svg" xmlns:xlink="http://www.w3.org/1999/xlink" width="40" zoomAndPan="magnify" viewBox="0 0 30 30.000001" height="40" preserveAspectRatio="xMidYMid meet" version="1.0"><defs><clipPath id="72b3056f95"><path d="M 6.769531 7.203125 L 23.464844 7.203125 L 23.464844 21.71875 L 6.769531 21.71875 Z M 6.769531 7.203125 " clip-rule="nonzero"/></clipPath></defs><g clip-path="url(#72b3056f95)"><path fill="#ffffff" d="M 22.453125 11.289062 C 22.300781 11.136719 22.046875 11.132812 21.894531 11.273438 L 21.355469 10.738281 C 21.246094 10.625 21.171875 10.484375 21.140625 10.332031 L 21.027344 9.757812 C 20.980469 9.527344 20.867188 9.3125 20.699219 9.144531 L 19.84375 8.292969 C 19.375 7.824219 18.800781 7.511719 18.179688 7.398438 C 17.101562 7.199219 15.871094 7.3125 14.410156 7.746094 C 14.195312 7.808594 14.0625 8.007812 14.085938 8.230469 C 14.109375 8.449219 14.277344 8.613281 14.496094 8.628906 C 15.640625 8.726562 16.457031 8.90625 17.058594 9.195312 C 17.148438 9.238281 17.210938 9.320312 17.226562 9.417969 C 17.242188 9.511719 17.210938 9.605469 17.140625 9.675781 L 16.300781 10.496094 C 16.261719 10.535156 16.238281 10.585938 16.238281 10.640625 C 16.238281 10.695312 16.257812 10.746094 16.296875 10.785156 L 16.371094 10.859375 L 10.257812 16.972656 L 9.238281 17.636719 C 9.226562 17.644531 9.21875 17.65625 9.207031 17.664062 L 7.058594 19.8125 C 6.785156 20.085938 6.796875 20.542969 7.085938 20.832031 L 7.84375 21.589844 C 7.992188 21.738281 8.1875 21.816406 8.378906 21.816406 C 8.554688 21.816406 8.730469 21.75 8.863281 21.617188 L 11.011719 19.46875 C 11.011719 19.46875 11.03125 19.449219 11.039062 19.4375 L 11.703125 18.417969 L 17.816406 12.304688 L 17.886719 12.378906 C 17.964844 12.457031 18.101562 12.457031 18.175781 12.378906 L 18.601562 11.957031 C 18.789062 11.769531 19.054688 11.6875 19.316406 11.738281 L 19.664062 11.808594 C 19.816406 11.839844 19.957031 11.914062 20.066406 12.023438 L 20.601562 12.558594 C 20.457031 12.71875 20.460938 12.964844 20.617188 13.117188 L 21.21875 13.722656 C 21.300781 13.800781 21.402344 13.839844 21.507812 13.839844 C 21.609375 13.839844 21.714844 13.800781 21.792969 13.722656 L 23.050781 12.464844 C 23.210938 12.304688 23.210938 12.046875 23.050781 11.890625 L 22.445312 11.289062 Z M 10.710938 19.199219 L 8.574219 21.332031 C 8.460938 21.445312 8.261719 21.4375 8.132812 21.304688 L 7.375 20.546875 C 7.246094 20.417969 7.234375 20.21875 7.347656 20.105469 L 9.484375 17.96875 L 10.363281 17.394531 L 11.285156 18.316406 Z M 11.546875 18.003906 L 10.675781 17.132812 L 16.660156 11.152344 L 17.53125 12.019531 Z M 20.359375 11.738281 C 20.1875 11.570312 19.976562 11.457031 19.742188 11.410156 L 19.398438 11.339844 C 19.003906 11.261719 18.597656 11.386719 18.316406 11.667969 L 18.035156 11.949219 L 16.734375 10.648438 L 17.425781 9.972656 C 17.589844 9.816406 17.664062 9.585938 17.628906 9.359375 C 17.589844 9.132812 17.445312 8.9375 17.234375 8.835938 C 16.585938 8.523438 15.726562 8.332031 14.527344 8.230469 C 14.515625 8.230469 14.492188 8.226562 14.492188 8.191406 C 14.488281 8.152344 14.515625 8.144531 14.527344 8.140625 C 15.921875 7.726562 17.09375 7.617188 18.105469 7.800781 C 18.644531 7.902344 19.148438 8.171875 19.558594 8.582031 L 20.410156 9.433594 C 20.519531 9.546875 20.597656 9.683594 20.625 9.839844 L 20.742188 10.414062 C 20.789062 10.648438 20.898438 10.859375 21.070312 11.027344 L 21.601562 11.558594 L 21.25 11.914062 L 20.894531 12.269531 L 20.359375 11.734375 Z M 21.507812 13.4375 L 20.90625 12.832031 L 21.535156 12.203125 L 22.035156 11.707031 L 22.160156 11.578125 L 22.765625 12.179688 Z M 21.507812 13.4375 " fill-opacity="1" fill-rule="nonzero"/></g></svg>