<svg version="1.1" id="Layer_1" xmlns="http://www.w3.org/2000/svg" xmlns:xlink="http://www.w3.org/1999/xlink" x="0px" y="0px"
	 width="100%" viewBox="0 0 2045 1589" enable-background="new 0 0 2045 1589" xml:space="preserve">
<path fill="#FFFFFF" opacity="1.000000" stroke="none" 
	d="
M1430.000000,1590.000000 
	C953.333313,1590.000000 477.166656,1590.000000 1.000000,1590.000000 
	C1.000000,1060.333374 1.000000,530.666687 1.000000,1.000000 
	C682.666687,1.000000 1364.333374,1.000000 2046.000000,1.000000 
	C2046.000000,530.666687 2046.000000,1060.333374 2046.000000,1590.000000 
	C1840.833374,1590.000000 1635.666626,1590.000000 1430.000000,1590.000000 
M831.066040,362.780212 
	C831.717346,369.183472 832.368652,375.586700 832.598572,382.545135 
	C830.788025,384.022308 829.196045,386.043793 827.126160,386.874847 
	C820.865234,389.388519 814.418823,391.440430 807.243164,393.756256 
	C804.565613,394.659302 801.782227,395.331604 799.227417,396.502533 
	C781.669067,404.550079 766.290649,415.917816 751.418518,428.056763 
	C749.926086,429.274902 748.141968,430.199646 746.377808,431.008972 
	C740.671143,433.627045 734.378418,435.344604 729.268616,438.817352 
	C712.500244,450.213470 698.284485,464.417542 685.458984,480.136902 
	C654.750427,517.774231 632.315613,559.493225 622.604919,607.395691 
	C615.427490,642.801697 619.515198,676.569458 638.549438,708.020569 
	C646.108826,720.511108 656.224792,728.323120 670.898010,730.477234 
	C683.948364,732.393127 696.869751,731.588684 709.669556,729.397461 
	C723.264221,727.070129 736.695374,723.787659 750.199219,721.871765 
	C750.400330,727.568115 750.601501,733.264526 750.475830,739.606018 
	C750.672058,740.727722 750.868286,741.849487 750.946716,743.865417 
	C751.060059,746.184937 751.188293,748.503845 751.283752,750.824097 
	C751.482422,755.657837 753.888245,758.380981 758.753723,759.097229 
	C761.676270,759.527527 764.540588,760.352905 767.222046,761.809387 
	C766.302246,771.401001 764.876648,780.976379 764.567017,790.587646 
	C763.903442,811.181885 767.491150,831.342041 771.885437,851.374756 
	C778.191345,880.121765 785.196838,908.743042 790.484497,937.677307 
	C795.142334,963.164917 797.807495,989.014832 801.436829,1014.692810 
	C804.543640,1036.673706 803.760498,1058.515503 799.346985,1080.241821 
	C794.732178,1102.958984 785.060425,1123.826294 775.896973,1144.916870 
	C762.089966,1176.695068 748.662354,1208.638550 735.257568,1240.588989 
	C734.655518,1242.024170 735.869385,1244.221313 736.158936,1246.770630 
	C735.462646,1248.241089 734.766418,1249.711670 733.367432,1251.158081 
	C729.674683,1256.341675 725.175781,1261.150391 722.537354,1266.824219 
	C720.317139,1271.598511 719.920227,1277.343018 719.351685,1282.725220 
	C718.875610,1287.232910 721.195740,1289.853027 726.007751,1290.900879 
	C754.095032,1297.017578 782.111267,1303.460327 810.190369,1309.615601 
	C815.450989,1310.768799 820.887756,1311.118042 827.424866,1311.997192 
	C827.424866,1306.180908 827.720825,1301.229248 827.366699,1296.324463 
	C826.475525,1283.982544 821.444519,1277.499390 809.564453,1274.031006 
	C798.091370,1270.681763 786.450134,1267.908325 774.907166,1264.044922 
	C774.973389,1262.924316 775.039612,1261.803589 775.852051,1260.734985 
	C777.172424,1260.296143 778.821045,1260.213501 779.753967,1259.354126 
	C783.057190,1256.310913 786.295227,1253.158081 789.240295,1249.770752 
	C835.473450,1196.593628 871.611755,1137.309692 896.505188,1071.327637 
	C904.701599,1049.602295 911.383667,1027.318481 911.104858,1003.838623 
	C910.721252,971.538757 909.566162,939.245972 908.520386,906.957214 
	C908.160034,895.829773 907.136536,884.723816 907.254333,873.804749 
	C909.377380,879.355103 911.964111,884.777527 913.536316,890.479736 
	C918.215088,907.450073 923.552917,924.343445 926.606628,941.625000 
	C929.197937,956.290283 929.126770,971.444702 929.964722,986.397705 
	C933.057922,1041.591309 935.895752,1096.799561 939.114685,1151.985596 
	C941.169739,1187.217773 943.883118,1222.411743 945.893982,1257.646118 
	C946.205505,1263.104004 948.175354,1265.512573 953.104797,1266.921265 
	C953.733032,1268.324585 954.361267,1269.727783 954.856445,1271.811768 
	C952.609070,1278.304688 949.973938,1284.698608 948.280945,1291.333008 
	C947.456543,1294.563354 947.987427,1298.317749 948.615112,1301.703125 
	C949.899231,1308.629028 951.080750,1309.722290 957.997192,1309.979492 
	C983.938354,1310.944580 1009.883057,1311.861328 1035.833740,1312.495117 
	C1043.724854,1312.687866 1051.639771,1311.909912 1059.448364,1311.580566 
	C1059.855469,1302.869141 1058.111206,1294.753906 1054.653198,1288.505127 
	C1051.876099,1283.486816 1047.901855,1279.014282 1042.249390,1278.502441 
	C1026.547974,1277.080933 1010.766174,1276.546387 994.985413,1274.638916 
	C994.993347,1269.368286 995.001282,1264.097656 995.760925,1258.451050 
	C999.626892,1258.407104 1001.466797,1256.668823 1002.268127,1252.637695 
	C1006.324280,1232.232910 1011.613770,1212.034302 1014.801880,1191.504150 
	C1021.927002,1145.621460 1028.912598,1099.684814 1034.325439,1053.578857 
	C1038.455811,1018.397949 1041.076660,982.965210 1042.579102,947.568542 
	C1044.600098,899.957703 1042.912842,852.317749 1038.772461,804.825073 
	C1036.400024,777.611389 1032.542847,750.582520 1026.767578,724.035950 
	C1036.162598,723.367920 1045.550415,722.566650 1054.954224,722.061646 
	C1070.656372,721.218567 1086.368530,720.564880 1102.900513,719.896484 
	C1104.697632,719.615601 1106.486694,719.169250 1108.293335,719.079895 
	C1123.381348,718.333862 1138.475586,717.709656 1153.560669,716.910522 
	C1156.963745,716.730225 1160.338135,716.009705 1163.878540,715.516602 
	C1163.878540,712.291443 1164.026245,709.469482 1163.854980,706.667114 
	C1162.620972,686.474976 1161.322021,666.286926 1160.736816,645.911743 
	C1164.688110,643.169983 1168.585938,632.560242 1167.507812,627.481384 
	C1175.275269,622.801453 1175.556885,621.567200 1170.365845,614.081543 
	C1174.441040,612.018555 1175.680420,608.374451 1172.747314,605.190796 
	C1170.460083,602.708008 1166.546265,601.723816 1162.150391,599.450684 
	C1166.147461,598.499451 1169.305176,598.256897 1171.926758,596.943909 
	C1173.655151,596.078308 1175.229858,593.807068 1175.646729,591.897522 
	C1175.846802,590.981140 1173.338867,588.581543 1171.825806,588.347229 
	C1166.947266,587.591492 1161.961182,587.529785 1156.949219,586.334473 
	C1155.973511,571.450562 1154.995483,556.566711 1154.023071,541.682617 
	C1153.385620,531.925964 1152.682251,522.172485 1152.186279,512.408569 
	C1152.089233,510.500244 1152.467651,508.406097 1153.209106,506.642487 
	C1159.066895,492.709564 1165.072266,478.838745 1171.018799,464.943115 
	C1173.729370,458.609283 1176.410034,452.262695 1179.409180,445.204437 
	C1176.574585,445.525055 1174.670044,445.849670 1172.754517,445.939880 
	C1157.173218,446.673798 1141.591064,447.389191 1126.006592,448.053650 
	C1120.475098,448.289490 1116.722778,449.920227 1114.642822,456.022705 
	C1111.492554,465.265533 1106.963379,474.038361 1102.224243,482.828644 
	C1101.817627,481.832581 1101.129639,480.858093 1101.051270,479.836884 
	C1100.621704,474.232178 1100.265625,468.619263 1100.024414,463.003143 
	C1099.314087,446.458588 1098.531250,429.914948 1098.087280,413.362610 
	C1097.959961,408.616394 1096.225098,406.651611 1091.532715,406.979584 
	C1081.144531,407.705627 1070.753906,408.426636 1060.354492,408.958893 
	C1045.310059,409.728912 1030.256592,410.316406 1015.208191,411.009308 
	C1008.430481,411.321381 1001.652954,411.651031 994.880493,412.057861 
	C979.040161,413.009521 963.203003,414.012634 947.152588,414.291992 
	C936.868652,396.882843 921.864563,386.226624 901.870178,382.845673 
	C900.189758,382.561523 898.349976,383.219360 895.759277,383.208160 
	C886.164734,382.402466 876.570129,381.596802 866.621033,380.117218 
	C866.112244,376.154083 865.603455,372.190979 865.822876,368.086456 
	C875.205017,364.928070 881.062012,358.526459 883.139282,348.858521 
	C883.983704,344.928345 883.774536,341.155762 879.067383,338.670471 
	C876.978882,328.379456 874.890381,318.088470 873.250549,307.253967 
	C879.901489,304.632782 884.772705,300.096130 887.704895,293.578888 
	C890.823547,286.647095 888.864136,280.238495 882.346436,276.383698 
	C874.339050,271.647827 865.922424,271.746277 858.060791,276.155823 
	C850.479187,280.408325 842.658203,283.088409 834.039001,283.778748 
	C831.067444,284.016785 828.099976,284.616547 825.194824,285.317413 
	C815.485901,287.659546 809.053467,293.663635 806.102051,303.187866 
	C802.098511,316.107452 802.415833,328.844177 808.802917,340.980316 
	C810.324402,343.871246 812.950867,346.180634 815.375488,349.368469 
	C820.617310,353.555664 825.859131,357.742859 831.066040,362.780212 
z"/>
<path fill="#4A95C5" opacity="1.000000" stroke="none" 
	d="
M1025.829468,724.038391 
	C1032.542847,750.582520 1036.400024,777.611389 1038.772461,804.825073 
	C1042.912842,852.317749 1044.600098,899.957703 1042.579102,947.568542 
	C1041.076660,982.965210 1038.455811,1018.397949 1034.325439,1053.578857 
	C1028.912598,1099.684814 1021.927002,1145.621460 1014.801880,1191.504150 
	C1011.613770,1212.034302 1006.324280,1232.232910 1002.268127,1252.637695 
	C1001.466797,1256.668823 999.626892,1258.407104 995.017456,1258.505127 
	C989.603943,1259.271606 984.933960,1259.984131 980.195312,1260.207520 
	C980.052734,1249.978760 981.112061,1240.066650 979.661072,1230.536621 
	C976.928223,1212.587769 972.956055,1194.813965 969.110596,1177.051636 
	C965.357239,1159.714478 962.070862,1142.350342 962.003845,1124.534180 
	C961.969666,1115.450806 961.866455,1106.364624 962.039062,1097.284424 
	C962.196594,1088.995728 962.632019,1080.710693 963.045898,1072.429077 
	C963.293701,1067.470581 963.721191,1062.520752 964.092163,1057.568970 
	C965.389709,1040.248413 967.277466,1022.946899 967.828613,1005.602844 
	C968.318604,990.182373 967.835815,974.681641 966.813904,959.280518 
	C966.161255,949.444763 965.002197,939.299255 961.857422,930.044495 
	C955.518066,911.388550 947.802734,893.191406 940.390259,874.912354 
	C936.180969,864.532227 932.210754,854.034607 933.149963,842.715515 
	C933.897034,833.711182 935.652954,824.737549 937.641907,815.903564 
	C939.816833,806.243469 932.787170,792.263733 922.139160,790.468079 
	C914.544739,789.187378 908.582520,792.538757 902.599976,796.111023 
	C901.779480,796.600891 901.285278,798.397705 901.374451,799.531616 
	C902.151917,809.414001 903.290405,819.270386 903.946716,829.159302 
	C904.929260,843.964966 905.607971,858.790771 906.415894,873.608032 
	C907.136536,884.723816 908.160034,895.829773 908.520386,906.957214 
	C909.566162,939.245972 910.721252,971.538757 911.104858,1003.838623 
	C911.383667,1027.318481 904.701599,1049.602295 896.505188,1071.327637 
	C871.611755,1137.309692 835.473450,1196.593628 789.240295,1249.770752 
	C786.295227,1253.158081 783.057190,1256.310913 779.753967,1259.354126 
	C778.821045,1260.213501 777.172424,1260.296143 775.251953,1260.463623 
	C764.074402,1255.897461 753.497009,1251.602783 743.040344,1246.970825 
	C743.862366,1245.509155 744.447571,1244.288940 745.282837,1243.275024 
	C753.394409,1233.429443 762.296997,1224.135010 769.511108,1213.674561 
	C779.932861,1198.562866 790.520020,1183.277710 798.442322,1166.817993 
	C805.198242,1152.781372 809.414368,1137.226807 812.746582,1121.907104 
	C817.763000,1098.844727 821.295776,1075.443237 824.929932,1052.103516 
	C826.860168,1039.707031 828.365662,1027.161499 828.808716,1014.638916 
	C829.295288,1000.882568 829.183899,986.989624 827.795105,973.312317 
	C826.129700,956.910828 823.899719,940.416626 820.013000,924.424622 
	C813.563171,897.886902 804.896790,871.885315 798.539978,845.328552 
	C794.943604,830.304138 793.181580,814.675659 792.286194,799.221191 
	C791.552673,786.560974 793.322693,773.755676 794.434937,761.009521 
	C797.595276,761.000305 800.303772,760.996155 803.456787,760.991211 
	C824.768616,759.728943 845.635864,758.467468 866.347412,757.215454 
	C863.328613,750.323364 860.657471,744.224976 858.437866,738.081543 
	C871.944946,735.707336 885.000549,733.378113 898.514221,731.081360 
	C907.602356,730.712830 916.236938,730.389832 924.861755,729.896851 
	C958.519348,727.973206 992.173828,725.995789 1025.829468,724.038391 
z"/>
<path fill="#53A6DC" opacity="1.000000" stroke="none" 
	d="
M857.986328,738.126526 
	C860.657471,744.224976 863.328613,750.323364 866.347412,757.215454 
	C845.635864,758.467468 824.768616,759.728943 803.451416,760.527466 
	C803.543640,741.687195 798.155273,724.265076 794.588867,705.920837 
	C779.540466,711.006348 764.869202,715.964355 750.197937,720.922363 
	C736.695374,723.787659 723.264221,727.070129 709.669556,729.397461 
	C696.869751,731.588684 683.948364,732.393127 670.898010,730.477234 
	C656.224792,728.323120 646.108826,720.511108 638.549438,708.020569 
	C619.515198,676.569458 615.427490,642.801697 622.604919,607.395691 
	C632.315613,559.493225 654.750427,517.774231 685.458984,480.136902 
	C698.284485,464.417542 712.500244,450.213470 729.268616,438.817352 
	C734.378418,435.344604 740.671143,433.627045 746.377808,431.008972 
	C748.141968,430.199646 749.926086,429.274902 751.418518,428.056763 
	C766.290649,415.917816 781.669067,404.550079 799.227417,396.502533 
	C801.782227,395.331604 804.565613,394.659302 807.682617,394.177704 
	C809.878967,414.631683 811.376526,434.691132 813.451965,454.690613 
	C816.796082,486.915680 820.238525,519.135803 824.167969,551.293396 
	C827.834778,581.302612 832.213501,611.224609 836.208801,641.194275 
	C836.646118,644.474915 838.109314,645.327515 841.260559,644.637878 
	C846.127625,643.572815 851.077332,642.891724 855.977539,641.970825 
	C868.213074,639.671509 880.440491,637.328796 893.050964,635.029785 
	C894.639343,634.732117 895.847839,634.408142 897.466003,634.113281 
	C901.363037,633.378662 902.921936,634.908875 903.721191,638.306885 
	C904.896179,643.302490 906.582581,648.177856 908.044678,653.492310 
	C907.014160,655.296448 906.281006,657.175415 904.908936,658.038208 
	C901.438477,660.220459 897.680847,661.945923 893.663208,663.910400 
	C877.820129,670.931274 862.331482,677.851318 846.929810,684.959656 
	C845.879272,685.444580 844.648560,687.554199 844.902954,688.550415 
	C849.131348,705.109680 853.583862,721.611694 857.986328,738.126526 
M748.516602,655.939270 
	C758.593079,655.252625 768.678040,654.665222 778.739258,653.800903 
	C780.920410,653.613464 783.484802,653.021851 782.960571,649.556335 
	C781.527283,640.080994 779.310303,630.614258 779.040955,621.097778 
	C778.592041,605.239136 778.133240,589.191162 780.002747,573.499878 
	C782.993958,548.395203 791.794495,524.323242 794.346375,498.989227 
	C796.349426,479.103027 791.299744,461.607635 779.957092,445.578735 
	C779.512512,444.950439 778.490295,444.730896 776.876099,443.852051 
	C777.553162,445.693756 777.820679,446.600739 778.209351,447.452423 
	C787.115967,466.969727 789.331482,487.192749 782.128662,507.478516 
	C774.029236,530.289429 764.695374,552.662109 755.897583,575.224976 
	C752.479065,583.992249 749.057800,592.758362 745.032959,601.380371 
	C744.740540,601.487671 744.268555,601.515625 744.181091,601.713501 
	C737.281433,617.324158 730.329346,632.912842 723.600647,648.597229 
	C722.008911,652.307495 724.651855,654.635864 727.832581,654.971619 
	C734.357727,655.660217 740.959595,655.622375 748.516602,655.939270 
z"/>
<path fill="#D6E6EA" opacity="1.000000" stroke="none" 
	d="
M897.056396,634.084167 
	C895.847839,634.408142 894.639343,634.732117 893.045715,634.616577 
	C891.799927,620.462158 890.911438,606.748840 890.085266,593.031860 
	C888.970215,574.518005 887.903076,556.001343 886.857056,536.978333 
	C886.785645,532.329956 886.672485,528.189087 887.053711,524.037903 
	C894.967834,523.686584 902.386963,523.331970 909.807556,523.008179 
	C918.055481,522.648193 926.315613,522.474182 934.548828,521.906189 
	C938.736633,521.617188 942.877075,520.640991 947.502197,519.982300 
	C957.239502,519.645996 966.525024,519.490295 975.785156,518.920776 
	C995.091431,517.733398 1014.376282,516.194031 1033.685059,515.053772 
	C1048.727661,514.165405 1063.798462,513.760132 1078.844604,512.922546 
	C1082.925537,512.695374 1086.962402,511.679047 1091.014648,511.489746 
	C1091.998413,529.475525 1092.980835,546.996887 1093.977295,564.517334 
	C1094.973877,582.038574 1095.982056,599.559021 1096.988892,617.079590 
	C1097.986206,634.434204 1099.096436,651.783081 1099.957764,669.144409 
	C1100.795654,686.033569 1101.380493,702.935181 1102.076538,719.831360 
	C1086.368530,720.564880 1070.656372,721.218567 1054.954224,722.061646 
	C1045.550415,722.566650 1036.162598,723.367920 1026.298584,724.037170 
	C992.173828,725.995789 958.519348,727.973206 924.861755,729.896851 
	C916.236938,730.389832 907.602356,730.712830 898.492432,730.615112 
	C897.253357,715.489929 896.551392,700.860229 895.710815,686.238464 
	C895.281494,678.769714 894.603760,671.315308 894.038208,663.854431 
	C897.680847,661.945923 901.438477,660.220459 904.908936,658.038208 
	C906.281006,657.175415 907.014160,655.296448 908.455811,653.443604 
	C912.793640,652.897827 916.715271,652.823914 920.633789,652.670532 
	C925.393555,652.484253 930.171082,652.409302 934.892578,651.865662 
	C935.914612,651.747925 936.730774,649.841736 937.641785,648.759338 
	C936.550598,647.863159 935.579956,646.709595 934.340820,646.129333 
	C932.315063,645.180786 930.114502,644.605591 927.987671,643.872864 
	C928.090576,643.342957 928.193542,642.813049 928.296448,642.283081 
	C930.167786,641.863159 932.026550,641.372192 933.913391,641.040527 
	C936.518188,640.582642 939.235596,640.534912 941.727234,639.748779 
	C943.264526,639.263855 944.471436,637.731812 945.826660,636.669922 
	C944.653748,635.439514 943.653564,633.930603 942.255310,633.063721 
	C941.061951,632.323792 939.386414,632.403320 937.968811,631.973328 
	C936.056824,631.393433 934.187622,630.672607 932.300049,630.012207 
	C932.358337,629.580750 932.416626,629.149292 932.474915,628.717834 
	C936.471191,628.170044 940.563416,627.976196 944.424744,626.930298 
	C946.460327,626.378967 948.093140,624.340454 949.907776,622.973450 
	C947.879028,621.667114 945.959900,619.509827 943.798645,619.231201 
	C939.274841,618.647888 934.623413,619.054382 930.024353,619.054382 
	C933.385498,617.412598 936.919434,616.969055 940.327698,616.056396 
	C942.215149,615.550842 943.892395,614.260437 945.664429,613.323792 
	C943.924072,611.787354 942.417297,609.440369 940.401489,608.859253 
	C932.934387,606.706726 925.656921,608.152344 918.620178,611.193298 
	C916.827637,611.968018 914.903259,612.437500 913.020386,613.025635 
	C913.001282,613.004089 912.958008,612.966125 912.963867,612.581543 
	C912.814026,610.257263 912.658264,608.317444 912.502502,606.377686 
	C910.438110,607.325195 908.076416,607.919312 906.400635,609.328918 
	C904.989014,610.516418 904.089355,612.553406 903.458496,614.384949 
	C901.210205,620.911987 899.173340,627.511841 897.056396,634.084167 
z"/>
<path fill="#F3F3F3" opacity="1.000000" stroke="none" 
	d="
M1091.019531,511.024933 
	C1086.962402,511.679047 1082.925537,512.695374 1078.844604,512.922546 
	C1063.798462,513.760132 1048.727661,514.165405 1033.685059,515.053772 
	C1014.376282,516.194031 995.091431,517.733398 975.785156,518.920776 
	C966.525024,519.490295 957.239502,519.645996 947.353638,519.667847 
	C943.961731,514.457520 941.049011,509.638092 938.432129,504.663025 
	C934.446777,497.086304 930.666321,489.401825 926.777283,481.361237 
	C926.462952,475.644409 926.145630,470.330688 925.881897,465.014282 
	C925.189392,451.054077 924.555664,437.090820 923.819580,423.132935 
	C923.600403,418.976135 924.719238,416.548981 929.533813,416.434143 
	C935.485413,416.292175 941.421692,415.503906 947.364563,414.994904 
	C963.203003,414.012634 979.040161,413.009521 994.880493,412.057861 
	C1001.652954,411.651031 1008.430481,411.321381 1015.208191,411.009308 
	C1030.256592,410.316406 1045.310059,409.728912 1060.354492,408.958893 
	C1070.753906,408.426636 1081.144531,407.705627 1091.532715,406.979584 
	C1096.225098,406.651611 1097.959961,408.616394 1098.087280,413.362610 
	C1098.531250,429.914948 1099.314087,446.458588 1100.024414,463.003143 
	C1100.265625,468.619263 1100.621704,474.232178 1101.051270,479.836884 
	C1101.129639,480.858093 1101.817627,481.832581 1102.488525,483.255249 
	C1098.841797,492.796234 1094.930664,501.910583 1091.019531,511.024933 
z"/>
<path fill="#BFD9DF" opacity="1.000000" stroke="none" 
	d="
M1091.014648,511.489746 
	C1094.930664,501.910583 1098.841797,492.796234 1102.886475,483.346375 
	C1106.963379,474.038361 1111.492554,465.265533 1114.642822,456.022705 
	C1116.722778,449.920227 1120.475098,448.289490 1126.006592,448.053650 
	C1141.591064,447.389191 1157.173218,446.673798 1172.754517,445.939880 
	C1174.670044,445.849670 1176.574585,445.525055 1179.409180,445.204437 
	C1176.410034,452.262695 1173.729370,458.609283 1171.018799,464.943115 
	C1165.072266,478.838745 1159.066895,492.709564 1153.209106,506.642487 
	C1152.467651,508.406097 1152.089233,510.500244 1152.186279,512.408569 
	C1152.682251,522.172485 1153.385620,531.925964 1154.023071,541.682617 
	C1154.995483,556.566711 1155.973511,571.450562 1156.977051,587.213379 
	C1157.005005,592.539673 1157.005005,596.987122 1157.005005,601.262268 
	C1145.402710,604.877930 1145.402710,604.877930 1148.905518,613.068237 
	C1141.528320,616.260315 1145.993286,621.424988 1147.008301,625.878174 
	C1141.584961,630.665710 1141.773438,632.693665 1147.775024,636.934753 
	C1148.556274,637.487000 1149.686035,638.160034 1149.817017,638.921143 
	C1150.833740,644.833374 1154.969360,646.088623 1160.043823,646.097534 
	C1161.322021,666.286926 1162.620972,686.474976 1163.854980,706.667114 
	C1164.026245,709.469482 1163.878540,712.291443 1163.878540,715.516602 
	C1160.338135,716.009705 1156.963745,716.730225 1153.560669,716.910522 
	C1138.475586,717.709656 1123.381348,718.333862 1108.293335,719.079895 
	C1106.486694,719.169250 1104.697632,719.615601 1102.488525,719.863892 
	C1101.380493,702.935181 1100.795654,686.033569 1099.957764,669.144409 
	C1099.096436,651.783081 1097.986206,634.434204 1096.988892,617.079590 
	C1095.982056,599.559021 1094.973877,582.038574 1093.977295,564.517334 
	C1092.980835,546.996887 1091.998413,529.475525 1091.014648,511.489746 
z"/>
<path fill="#4488B4" opacity="1.000000" stroke="none" 
	d="
M906.835083,873.706421 
	C905.607971,858.790771 904.929260,843.964966 903.946716,829.159302 
	C903.290405,819.270386 902.151917,809.414001 901.374451,799.531616 
	C901.285278,798.397705 901.779480,796.600891 902.599976,796.111023 
	C908.582520,792.538757 914.544739,789.187378 922.139160,790.468079 
	C932.787170,792.263733 939.816833,806.243469 937.641907,815.903564 
	C935.652954,824.737549 933.897034,833.711182 933.149963,842.715515 
	C932.210754,854.034607 936.180969,864.532227 940.390259,874.912354 
	C947.802734,893.191406 955.518066,911.388550 961.857422,930.044495 
	C965.002197,939.299255 966.161255,949.444763 966.813904,959.280518 
	C967.835815,974.681641 968.318604,990.182373 967.828613,1005.602844 
	C967.277466,1022.946899 965.389709,1040.248413 964.092163,1057.568970 
	C963.721191,1062.520752 963.293701,1067.470581 963.045898,1072.429077 
	C962.632019,1080.710693 962.196594,1088.995728 962.039062,1097.284424 
	C961.866455,1106.364624 961.969666,1115.450806 962.003845,1124.534180 
	C962.070862,1142.350342 965.357239,1159.714478 969.110596,1177.051636 
	C972.956055,1194.813965 976.928223,1212.587769 979.661072,1230.536621 
	C981.112061,1240.066650 980.052734,1249.978760 979.881104,1260.367676 
	C970.805481,1262.751953 961.975281,1264.486938 953.145142,1266.221924 
	C948.175354,1265.512573 946.205505,1263.104004 945.893982,1257.646118 
	C943.883118,1222.411743 941.169739,1187.217773 939.114685,1151.985596 
	C935.895752,1096.799561 933.057922,1041.591309 929.964722,986.397705 
	C929.126770,971.444702 929.197937,956.290283 926.606628,941.625000 
	C923.552917,924.343445 918.215088,907.450073 913.536316,890.479736 
	C911.964111,884.777527 909.377380,879.355103 906.835083,873.706421 
z"/>
<path fill="#E87E70" opacity="1.000000" stroke="none" 
	d="
M886.815308,537.485840 
	C887.903076,556.001343 888.970215,574.518005 890.085266,593.031860 
	C890.911438,606.748840 891.799927,620.462158 892.665894,634.590332 
	C880.440491,637.328796 868.213074,639.671509 855.977539,641.970825 
	C851.077332,642.891724 846.127625,643.572815 841.260559,644.637878 
	C838.109314,645.327515 836.646118,644.474915 836.208801,641.194275 
	C832.213501,611.224609 827.834778,581.302612 824.167969,551.293396 
	C820.238525,519.135803 816.796082,486.915680 813.451965,454.690613 
	C811.376526,434.691132 809.878967,414.631683 808.083374,394.135712 
	C814.418823,391.440430 820.865234,389.388519 827.126160,386.874847 
	C829.196045,386.043793 830.788025,384.022308 833.177246,382.236816 
	C834.764404,382.373718 836.061890,382.557465 836.737122,383.304077 
	C844.718872,392.129700 855.022278,394.371796 866.125183,394.265198 
	C863.581909,397.046783 861.218201,399.519043 858.575195,402.283386 
	C860.005676,403.519745 860.936218,404.491882 862.023315,405.235168 
	C867.451904,408.947113 870.154846,414.269196 871.101257,420.586121 
	C873.217285,434.710632 875.265137,448.845367 876.885620,463.040222 
	C868.662292,463.644501 860.894165,464.184509 852.112488,464.794983 
	C856.498413,472.448273 860.276794,478.863708 863.882263,485.374878 
	C869.099365,494.796265 874.191345,504.286957 879.263611,514.237549 
	C879.152039,517.542664 879.483398,520.423218 879.002747,523.161255 
	C877.776428,530.146179 881.132568,534.393188 886.815308,537.485840 
z"/>
<path fill="#4488B4" opacity="1.000000" stroke="none" 
	d="
M793.982910,761.014648 
	C793.322693,773.755676 791.552673,786.560974 792.286194,799.221191 
	C793.181580,814.675659 794.943604,830.304138 798.539978,845.328552 
	C804.896790,871.885315 813.563171,897.886902 820.013000,924.424622 
	C823.899719,940.416626 826.129700,956.910828 827.795105,973.312317 
	C829.183899,986.989624 829.295288,1000.882568 828.808716,1014.638916 
	C828.365662,1027.161499 826.860168,1039.707031 824.929932,1052.103516 
	C821.295776,1075.443237 817.763000,1098.844727 812.746582,1121.907104 
	C809.414368,1137.226807 805.198242,1152.781372 798.442322,1166.817993 
	C790.520020,1183.277710 779.932861,1198.562866 769.511108,1213.674561 
	C762.296997,1224.135010 753.394409,1233.429443 745.282837,1243.275024 
	C744.447571,1244.288940 743.862366,1245.509155 742.653870,1246.943604 
	C740.176880,1246.857056 738.207153,1246.460327 736.237427,1246.063477 
	C735.869385,1244.221313 734.655518,1242.024170 735.257568,1240.588989 
	C748.662354,1208.638550 762.089966,1176.695068 775.896973,1144.916870 
	C785.060425,1123.826294 794.732178,1102.958984 799.346985,1080.241821 
	C803.760498,1058.515503 804.543640,1036.673706 801.436829,1014.692810 
	C797.807495,989.014832 795.142334,963.164917 790.484497,937.677307 
	C785.196838,908.743042 778.191345,880.121765 771.885437,851.374756 
	C767.491150,831.342041 763.903442,811.181885 764.567017,790.587646 
	C764.876648,780.976379 766.302246,771.401001 767.762329,761.404846 
	C776.862732,761.005127 785.422791,761.009888 793.982910,761.014648 
z"/>
<path fill="#262626" opacity="1.000000" stroke="none" 
	d="
M995.016113,1275.661499 
	C1010.766174,1276.546387 1026.547974,1277.080933 1042.249390,1278.502441 
	C1047.901855,1279.014282 1051.876099,1283.486816 1054.653198,1288.505127 
	C1058.111206,1294.753906 1059.855469,1302.869141 1059.448364,1311.580566 
	C1051.639771,1311.909912 1043.724854,1312.687866 1035.833740,1312.495117 
	C1009.883057,1311.861328 983.938354,1310.944580 957.997192,1309.979492 
	C951.080750,1309.722290 949.899231,1308.629028 948.615112,1301.703125 
	C947.987427,1298.317749 947.456543,1294.563354 948.280945,1291.333008 
	C949.973938,1284.698608 952.609070,1278.304688 955.263306,1271.298828 
	C956.876465,1270.840942 958.494263,1270.407104 959.227356,1271.024170 
	C970.200745,1280.261230 982.310791,1280.130859 995.016113,1275.661499 
z"/>
<path fill="#262626" opacity="1.000000" stroke="none" 
	d="
M774.882812,1264.881836 
	C786.450134,1267.908325 798.091370,1270.681763 809.564453,1274.031006 
	C821.444519,1277.499390 826.475525,1283.982544 827.366699,1296.324463 
	C827.720825,1301.229248 827.424866,1306.180908 827.424866,1311.997192 
	C820.887756,1311.118042 815.450989,1310.768799 810.190369,1309.615601 
	C782.111267,1303.460327 754.095032,1297.017578 726.007751,1290.900879 
	C721.195740,1289.853027 718.875610,1287.232910 719.351685,1282.725220 
	C719.920227,1277.343018 720.317139,1271.598511 722.537354,1266.824219 
	C725.175781,1261.150391 729.674683,1256.341675 733.841431,1251.464355 
	C740.278992,1260.133545 748.582397,1264.337769 758.656067,1264.943237 
	C764.044250,1265.267334 769.472595,1264.924072 774.882812,1264.881836 
z"/>
<path fill="#905D3F" opacity="1.000000" stroke="none" 
	d="
M815.069092,348.757507 
	C812.950867,346.180634 810.324402,343.871246 808.802917,340.980316 
	C802.415833,328.844177 802.098511,316.107452 806.102051,303.187866 
	C809.053467,293.663635 815.485901,287.659546 825.194824,285.317413 
	C828.099976,284.616547 831.067444,284.016785 834.039001,283.778748 
	C842.658203,283.088409 850.479187,280.408325 858.060791,276.155823 
	C865.922424,271.746277 874.339050,271.647827 882.346436,276.383698 
	C888.864136,280.238495 890.823547,286.647095 887.704895,293.578888 
	C884.772705,300.096130 879.901489,304.632782 872.667236,307.615173 
	C857.381104,314.151764 841.726990,312.985077 825.789307,313.201691 
	C826.162903,316.880188 826.521912,319.808899 826.745728,322.747864 
	C827.183167,328.491241 827.545166,334.240387 827.564758,339.984924 
	C825.798706,339.214264 824.483582,338.112335 822.993225,337.767639 
	C821.379700,337.394440 819.473755,337.360443 817.947876,337.896881 
	C817.095825,338.196442 816.008850,340.624939 816.302429,340.952942 
	C819.204285,344.194305 816.125916,346.289856 815.069092,348.757507 
z"/>
<path fill="#4192CF" opacity="1.000000" stroke="none" 
	d="
M794.434875,761.009521 
	C785.422791,761.009888 776.862732,761.005127 767.866821,761.000488 
	C764.540588,760.352905 761.676270,759.527527 758.753723,759.097229 
	C753.888245,758.380981 751.482422,755.657837 751.283752,750.824097 
	C751.188293,748.503845 751.060059,746.184937 751.248840,743.225220 
	C751.301514,741.376953 751.052063,740.168945 750.802612,738.960876 
	C750.601501,733.264526 750.400330,727.568115 750.198608,721.397034 
	C764.869202,715.964355 779.540466,711.006348 794.588867,705.920837 
	C798.155273,724.265076 803.543640,741.687195 803.006836,760.528320 
	C800.303772,760.996155 797.595276,761.000305 794.434875,761.009521 
z"/>
<path fill="#53A6DC" opacity="1.000000" stroke="none" 
	d="
M947.258545,414.643433 
	C941.421692,415.503906 935.485413,416.292175 929.533813,416.434143 
	C924.719238,416.548981 923.600403,418.976135 923.819580,423.132935 
	C924.555664,437.090820 925.189392,451.054077 925.881897,465.014282 
	C926.145630,470.330688 926.462952,475.644409 926.449707,481.383209 
	C923.138550,476.906860 920.133423,472.006653 917.116394,466.680664 
	C916.819458,464.621460 916.637024,462.962219 916.233704,461.358521 
	C909.700439,435.381378 903.139160,409.411285 896.584229,383.439575 
	C898.349976,383.219360 900.189758,382.561523 901.870178,382.845673 
	C921.864563,386.226624 936.868652,396.882843 947.258545,414.643433 
z"/>
<path fill="#E87E70" opacity="1.000000" stroke="none" 
	d="
M896.171753,383.323853 
	C903.139160,409.411285 909.700439,435.381378 916.233704,461.358521 
	C916.637024,462.962219 916.819458,464.621460 916.846436,466.443909 
	C914.685120,461.901703 911.516235,460.132874 906.351440,461.538635 
	C903.855591,462.217987 901.061218,461.801025 898.323792,461.492676 
	C892.010254,445.173279 885.734680,429.257141 879.585571,413.292297 
	C878.725159,411.058319 877.833069,408.516083 878.076050,406.235931 
	C878.902283,398.483063 879.092590,398.506256 871.896667,395.101410 
	C870.845032,394.603851 869.812927,394.065033 868.818726,393.191833 
	C868.715332,390.518799 868.703064,388.179138 868.369568,385.886230 
	C868.118042,384.156860 867.455322,382.487305 866.975586,380.791107 
	C876.570129,381.596802 886.164734,382.402466 896.171753,383.323853 
z"/>
<path fill="#F4C6AA" opacity="1.000000" stroke="none" 
	d="
M827.938477,339.987122 
	C827.545166,334.240387 827.183167,328.491241 826.745728,322.747864 
	C826.521912,319.808899 826.162903,316.880188 825.789307,313.201691 
	C841.726990,312.985077 857.381104,314.151764 872.442932,307.886902 
	C874.890381,318.088470 876.978882,328.379456 878.623352,339.183044 
	C873.582764,339.896332 868.461365,341.472595 864.515930,339.967010 
	C858.957947,337.846008 855.996887,339.247375 852.135437,342.994537 
	C846.172913,348.780640 832.768982,346.766327 827.938477,339.987122 
z"/>
<path fill="#A56B4B" opacity="1.000000" stroke="none" 
	d="
M827.564758,339.984924 
	C832.768982,346.766327 846.172913,348.780640 852.135437,342.994537 
	C855.996887,339.247375 858.957947,337.846008 864.515930,339.967010 
	C868.461365,341.472595 873.582764,339.896332 878.626221,339.592407 
	C883.774536,341.155762 883.983704,344.928345 883.139282,348.858521 
	C881.062012,358.526459 875.205017,364.928070 865.039673,368.112244 
	C852.255249,371.139496 841.432129,367.848572 831.101013,361.930054 
	C825.859131,357.742859 820.617310,353.555664 815.222290,349.062988 
	C816.125916,346.289856 819.204285,344.194305 816.302429,340.952942 
	C816.008850,340.624939 817.095825,338.196442 817.947876,337.896881 
	C819.473755,337.360443 821.379700,337.394440 822.993225,337.767639 
	C824.483582,338.112335 825.798706,339.214264 827.564758,339.984924 
z"/>
<path fill="#F4C6AA" opacity="1.000000" stroke="none" 
	d="
M1160.390381,646.004639 
	C1154.969360,646.088623 1150.833740,644.833374 1149.817017,638.921143 
	C1149.686035,638.160034 1148.556274,637.487000 1147.775024,636.934753 
	C1141.773438,632.693665 1141.584961,630.665710 1147.008301,625.878174 
	C1145.993286,621.424988 1141.528320,616.260315 1148.905518,613.068237 
	C1145.402710,604.877930 1145.402710,604.877930 1157.005005,601.262268 
	C1157.005005,596.987122 1157.005005,592.539673 1157.010742,587.646362 
	C1161.961182,587.529785 1166.947266,587.591492 1171.825806,588.347229 
	C1173.338867,588.581543 1175.846802,590.981140 1175.646729,591.897522 
	C1175.229858,593.807068 1173.655151,596.078308 1171.926758,596.943909 
	C1169.305176,598.256897 1166.147461,598.499451 1162.150391,599.450684 
	C1166.546265,601.723816 1170.460083,602.708008 1172.747314,605.190796 
	C1175.680420,608.374451 1174.441040,612.018555 1170.365845,614.081543 
	C1175.556885,621.567200 1175.275269,622.801453 1167.507812,627.481384 
	C1168.585938,632.560242 1164.688110,643.169983 1160.390381,646.004639 
z"/>
<path fill="#F4C6AA" opacity="1.000000" stroke="none" 
	d="
M831.083496,362.355133 
	C841.432129,367.848572 852.255249,371.139496 864.675598,368.182922 
	C865.603455,372.190979 866.112244,376.154083 866.798340,380.454163 
	C867.455322,382.487305 868.118042,384.156860 868.369568,385.886230 
	C868.703064,388.179138 868.715332,390.518799 868.515686,393.269318 
	C867.545410,393.785461 866.925049,393.870636 866.304688,393.955841 
	C855.022278,394.371796 844.718872,392.129700 836.737122,383.304077 
	C836.061890,382.557465 834.764404,382.373718 833.387939,381.959229 
	C832.368652,375.586700 831.717346,369.183472 831.083496,362.355133 
z"/>
<path fill="#F4C6AA" opacity="1.000000" stroke="none" 
	d="
M995.000732,1275.150146 
	C982.310791,1280.130859 970.200745,1280.261230 959.227356,1271.024170 
	C958.494263,1270.407104 956.876465,1270.840942 955.329834,1270.958496 
	C954.361267,1269.727783 953.733032,1268.324585 953.125000,1266.571533 
	C961.975281,1264.486938 970.805481,1262.751953 979.949768,1260.856689 
	C984.933960,1259.984131 989.603943,1259.271606 994.641602,1258.693115 
	C995.001282,1264.097656 994.993347,1269.368286 995.000732,1275.150146 
z"/>
<path fill="#F4C6AA" opacity="1.000000" stroke="none" 
	d="
M774.895020,1264.463379 
	C769.472595,1264.924072 764.044250,1265.267334 758.656067,1264.943237 
	C748.582397,1264.337769 740.278992,1260.133545 734.192749,1251.476440 
	C734.766418,1249.711670 735.462646,1248.241089 736.198181,1246.416992 
	C738.207153,1246.460327 740.176880,1246.857056 742.533142,1247.281006 
	C753.497009,1251.602783 764.074402,1255.897461 774.878784,1260.437622 
	C775.039612,1261.803589 774.973389,1262.924316 774.895020,1264.463379 
z"/>
<path fill="#53A6DC" opacity="1.000000" stroke="none" 
	d="
M750.639221,739.283447 
	C751.052063,740.168945 751.301514,741.376953 751.307739,742.778076 
	C750.868286,741.849487 750.672058,740.727722 750.639221,739.283447 
z"/>
<path fill="#E87E70" opacity="1.000000" stroke="none" 
	d="
M893.663147,663.910400 
	C894.603760,671.315308 895.281494,678.769714 895.710815,686.238464 
	C896.551392,700.860229 897.253357,715.489929 898.034363,730.582642 
	C885.000549,733.378113 871.944946,735.707336 858.437866,738.081543 
	C853.583862,721.611694 849.131348,705.109680 844.902954,688.550415 
	C844.648560,687.554199 845.879272,685.444580 846.929810,684.959656 
	C862.331482,677.851318 877.820129,670.931274 893.663147,663.910400 
z"/>
<path fill="#4192CF" opacity="1.000000" stroke="none" 
	d="
M745.637817,601.525024 
	C749.057800,592.758362 752.479065,583.992249 755.897583,575.224976 
	C764.695374,552.662109 774.029236,530.289429 782.128662,507.478516 
	C789.331482,487.192749 787.115967,466.969727 778.209351,447.452423 
	C777.820679,446.600739 777.553162,445.693756 776.876099,443.852051 
	C778.490295,444.730896 779.512512,444.950439 779.957092,445.578735 
	C791.299744,461.607635 796.349426,479.103027 794.346375,498.989227 
	C791.794495,524.323242 782.993958,548.395203 780.002747,573.499878 
	C778.133240,589.191162 778.592041,605.239136 779.040955,621.097778 
	C779.310303,630.614258 781.527283,640.080994 782.960571,649.556335 
	C783.484802,653.021851 780.920410,653.613464 778.739258,653.800903 
	C768.678040,654.665222 758.593079,655.252625 748.050415,655.476318 
	C747.582520,652.386536 747.580872,649.759705 747.948486,646.895264 
	C748.732544,643.000916 750.742065,639.154419 746.953613,635.529907 
	C746.758118,630.422180 746.655945,625.771667 746.836182,621.011597 
	C746.868835,620.253601 746.619019,619.605164 746.252747,618.505493 
	C745.970093,612.544495 745.803955,607.034729 745.637817,601.525024 
z"/>
<path fill="#F4C6AA" opacity="1.000000" stroke="none" 
	d="
M913.039429,613.047180 
	C914.903259,612.437500 916.827637,611.968018 918.620178,611.193298 
	C925.656921,608.152344 932.934387,606.706726 940.401489,608.859253 
	C942.417297,609.440369 943.924072,611.787354 945.664429,613.323792 
	C943.892395,614.260437 942.215149,615.550842 940.327698,616.056396 
	C936.919434,616.969055 933.385498,617.412598 930.024353,619.054382 
	C934.623413,619.054382 939.274841,618.647888 943.798645,619.231201 
	C945.959900,619.509827 947.879028,621.667114 949.907776,622.973450 
	C948.093140,624.340454 946.460327,626.378967 944.424744,626.930298 
	C940.563416,627.976196 936.471191,628.170044 932.474915,628.717834 
	C932.416626,629.149292 932.358337,629.580750 932.300049,630.012207 
	C934.187622,630.672607 936.056824,631.393433 937.968811,631.973328 
	C939.386414,632.403320 941.061951,632.323792 942.255310,633.063721 
	C943.653564,633.930603 944.653748,635.439514 945.826660,636.669922 
	C944.471436,637.731812 943.264526,639.263855 941.727234,639.748779 
	C939.235596,640.534912 936.518188,640.582642 933.913391,641.040527 
	C932.026550,641.372192 930.167786,641.863159 928.296448,642.283081 
	C928.193542,642.813049 928.090576,643.342957 927.987671,643.872864 
	C930.114502,644.605591 932.315063,645.180786 934.340820,646.129333 
	C935.579956,646.709595 936.550598,647.863159 937.641785,648.759338 
	C936.730774,649.841736 935.914612,651.747925 934.892578,651.865662 
	C930.171082,652.409302 925.393555,652.484253 920.633789,652.670532 
	C916.715271,652.823914 912.793640,652.897827 908.462280,653.055664 
	C906.582581,648.177856 904.896179,643.302490 903.721191,638.306885 
	C902.921936,634.908875 901.363037,633.378662 897.466003,634.113281 
	C899.173340,627.511841 901.210205,620.911987 903.458496,614.384949 
	C904.089355,612.553406 904.989014,610.516418 906.400635,609.328918 
	C908.076416,607.919312 910.438110,607.325195 912.502502,606.377686 
	C912.658264,608.317444 912.814026,610.257263 912.815125,612.646790 
	C912.618713,613.203308 912.576965,613.310120 912.535278,613.416931 
	C912.703308,613.293701 912.871399,613.170410 913.039429,613.047180 
z"/>
<path fill="#FFFFFF" opacity="1.000000" stroke="none" 
	d="
M747.579224,647.132935 
	C747.580872,649.759705 747.582520,652.386536 747.557007,655.448486 
	C740.959595,655.622375 734.357727,655.660217 727.832581,654.971619 
	C724.651855,654.635864 722.008911,652.307495 723.600647,648.597229 
	C730.329346,632.912842 737.281433,617.324158 744.181091,601.713501 
	C744.268555,601.515625 744.740540,601.487671 745.335388,601.452698 
	C745.803955,607.034729 745.970093,612.544495 746.126953,618.772278 
	C746.262939,620.033997 746.408386,620.577576 746.553772,621.121216 
	C746.655945,625.771667 746.758118,630.422180 746.855469,635.974182 
	C747.093506,640.294800 747.336365,643.713867 747.579224,647.132935 
z"/>
<path fill="#BFD9DF" opacity="1.000000" stroke="none" 
	d="
M898.402039,461.880402 
	C901.061218,461.801025 903.855591,462.217987 906.351440,461.538635 
	C911.516235,460.132874 914.685120,461.901703 916.858276,466.869690 
	C920.133423,472.006653 923.138550,476.906860 926.471191,481.785095 
	C930.666321,489.401825 934.446777,497.086304 938.432129,504.663025 
	C941.049011,509.638092 943.961731,514.457520 946.890381,519.661133 
	C942.877075,520.640991 938.736633,521.617188 934.548828,521.906189 
	C926.315613,522.474182 918.055481,522.648193 909.807556,523.008179 
	C902.386963,523.331970 894.967834,523.686584 886.837891,523.811584 
	C883.864075,520.313110 881.600403,517.030579 879.336731,513.748047 
	C874.191345,504.286957 869.099365,494.796265 863.882263,485.374878 
	C860.276794,478.863708 856.498413,472.448273 852.112488,464.794983 
	C860.894165,464.184509 868.662292,463.644501 877.320068,463.058350 
	C884.940491,462.634979 891.671265,462.257690 898.402039,461.880402 
z"/>
<path fill="#4A95C5" opacity="1.000000" stroke="none" 
	d="
M879.263611,514.237549 
	C881.600403,517.030579 883.864075,520.313110 886.343567,523.821899 
	C886.672485,528.189087 886.785645,532.329956 886.857056,536.978333 
	C881.132568,534.393188 877.776428,530.146179 879.002747,523.161255 
	C879.483398,520.423218 879.152039,517.542664 879.263611,514.237549 
z"/>
<path fill="#4192CF" opacity="1.000000" stroke="none" 
	d="
M898.323792,461.492676 
	C891.671265,462.257690 884.940491,462.634979 877.775269,462.994080 
	C875.265137,448.845367 873.217285,434.710632 871.101257,420.586121 
	C870.154846,414.269196 867.451904,408.947113 862.023315,405.235168 
	C860.936218,404.491882 860.005676,403.519745 858.575195,402.283386 
	C861.218201,399.519043 863.581909,397.046783 866.125183,394.265198 
	C866.925049,393.870636 867.545410,393.785461 868.468750,393.622803 
	C869.812927,394.065033 870.845032,394.603851 871.896667,395.101410 
	C879.092590,398.506256 878.902283,398.483063 878.076050,406.235931 
	C877.833069,408.516083 878.725159,411.058319 879.585571,413.292297 
	C885.734680,429.257141 892.010254,445.173279 898.323792,461.492676 
z"/>
<path fill="#53A6DC" opacity="1.000000" stroke="none" 
	d="
M747.948486,646.895264 
	C747.336365,643.713867 747.093506,640.294800 746.948853,636.431519 
	C750.742065,639.154419 748.732544,643.000916 747.948486,646.895264 
z"/>
<path fill="#53A6DC" opacity="1.000000" stroke="none" 
	d="
M746.836182,621.011597 
	C746.408386,620.577576 746.262939,620.033997 746.243408,619.223572 
	C746.619019,619.605164 746.868835,620.253601 746.836182,621.011597 
z"/>
<path fill="#D6E6EA" opacity="1.000000" stroke="none" 
	d="
M913.020386,613.025635 
	C912.871399,613.170410 912.703308,613.293701 912.535278,613.416931 
	C912.576965,613.310120 912.618713,613.203308 912.809204,613.031372 
	C912.958008,612.966125 913.001282,613.004089 913.020386,613.025635 
z"/>
</svg>