<svg version="1.1" id="Layer_1" xmlns="http://www.w3.org/2000/svg" xmlns:xlink="http://www.w3.org/1999/xlink" x="0px" y="0px"
	 width="100%" viewBox="0 0 1401 591" enable-background="new 0 0 1401 591" xml:space="preserve">
<path fill="#FFFFFF" opacity="1.000000" stroke="none" 
	d="
M958.000000,592.000000 
	C638.706665,592.000000 319.913300,592.000000 1.059977,592.000000 
	C1.059977,395.064697 1.059977,198.129395 1.059977,1.097035 
	C467.876740,1.097035 934.753479,1.097035 1401.815186,1.097035 
	C1401.815186,197.999863 1401.815186,394.999908 1401.815186,592.000000 
	C1254.129272,592.000000 1106.314697,592.000000 958.000000,592.000000 
M251.060776,310.550446 
	C251.060776,310.550446 251.131775,310.111145 251.846405,309.963226 
	C252.784927,309.626099 253.729126,309.303894 254.661179,308.949738 
	C282.906281,298.217682 299.324524,268.988831 293.830994,239.222488 
	C288.497772,210.324524 263.052216,188.975571 233.337952,188.867172 
	C198.878830,188.741470 164.418625,188.914932 129.259064,189.452408 
	C129.170868,190.942444 129.004303,192.432571 129.005905,193.922501 
	C129.048447,233.585403 129.108322,273.248291 129.090866,313.859833 
	C129.090866,327.115479 129.090866,340.371124 129.090866,353.703339 
	C184.309113,353.703339 238.777832,353.703339 292.270050,353.703339 
	C278.722168,339.672302 264.876984,325.333405 251.060776,310.550446 
M1030.723877,212.406906 
	C1011.106018,193.469528 987.681274,186.056778 960.818787,189.862686 
	C935.192566,193.493454 915.503845,206.728516 902.215637,228.763626 
	C887.256409,253.569473 886.085449,279.664429 897.733215,306.078064 
	C901.592712,314.830261 906.258850,323.382446 914.708374,329.811249 
	C915.438171,330.703339 916.060364,331.717346 916.913391,332.469727 
	C937.361145,350.506805 960.969788,357.743195 987.978149,353.002686 
	C1033.932129,344.936798 1064.622437,298.412048 1053.750366,253.084335 
	C1050.041992,237.623459 1043.303955,223.694855 1030.723877,212.406906 
M1244.744141,212.345810 
	C1224.853516,193.100067 1201.033936,185.773972 1173.909424,190.010544 
	C1132.658936,196.453476 1104.470093,230.996109 1104.268799,272.360352 
	C1104.182983,290.006470 1109.958130,306.342773 1120.521118,320.676910 
	C1122.817993,323.793732 1125.946411,326.297729 1128.857178,329.767365 
	C1130.305420,331.343750 1131.591064,333.117401 1133.226807,334.466431 
	C1152.123901,350.050720 1173.802002,356.998627 1198.121582,353.754333 
	C1246.749512,347.267090 1279.286011,299.797089 1267.793579,252.380112 
	C1264.091553,237.106018 1257.222900,223.428513 1244.744141,212.345810 
M533.500000,188.821564 
	C510.087982,188.821564 486.675964,188.821564 463.190308,188.821564 
	C463.190308,244.260727 463.190308,298.981110 463.190308,353.963593 
	C464.587769,354.053955 465.714691,354.190277 466.841614,354.190460 
	C493.826996,354.195404 520.812561,354.229980 547.797607,354.130127 
	C551.769958,354.115417 555.777588,353.683441 559.705200,353.049927 
	C595.275940,347.312622 624.067078,317.093689 627.893494,281.593842 
	C631.931458,244.131699 611.482605,209.166046 577.615295,195.036545 
	C563.700012,189.231049 549.232666,188.378571 533.500000,188.821564 
M813.499939,358.476959 
	C823.239563,358.476959 832.979187,358.476959 842.691772,358.476959 
	C842.691772,301.941925 842.691772,246.214630 842.691772,190.332428 
	C786.583069,190.332428 730.741882,190.332428 674.809937,190.332428 
	C674.809937,246.506210 674.809937,302.359924 674.809937,358.476196 
	C720.936096,358.476196 766.718018,358.476196 813.499939,358.476959 
M415.962585,326.500000 
	C415.962585,301.418671 415.962585,276.337372 415.962585,251.282288 
	C391.439362,251.282288 367.577698,251.282288 343.684326,251.282288 
	C343.684326,285.725067 343.684326,319.777008 343.684326,353.807587 
	C367.905731,353.807587 391.776184,353.807587 415.962555,353.807587 
	C415.962555,344.776215 415.962555,336.138092 415.962585,326.500000 
M413.224091,230.014343 
	C414.145905,228.641739 415.840271,227.284195 415.867371,225.894150 
	C416.084747,214.741653 416.004028,203.582947 415.959686,192.426361 
	C415.955383,191.342102 415.580994,190.259338 415.388275,189.228760 
	C391.287201,189.228760 367.536682,189.228760 343.516052,189.228760 
	C343.516052,202.883347 343.516052,216.237595 343.516052,230.024246 
	C366.701721,230.024246 389.488037,230.024246 413.224091,230.014343 
z"/>
<path fill="#5079B9" opacity="1.000000" stroke="none" 
	d="
M534.000000,188.821487 
	C549.232666,188.378571 563.700012,189.231049 577.615295,195.036545 
	C611.482605,209.166046 631.931458,244.131699 627.893494,281.593842 
	C624.067078,317.093689 595.275940,347.312622 559.705200,353.049927 
	C555.777588,353.683441 551.769958,354.115417 547.797607,354.130127 
	C520.812561,354.229980 493.826996,354.195404 466.841614,354.190460 
	C465.714691,354.190277 464.587769,354.053955 463.190308,353.963593 
	C463.190308,298.981110 463.190308,244.260727 463.190308,188.821564 
	C486.675964,188.821564 510.087982,188.821564 534.000000,188.821487 
z"/>
<path fill="#527BBA" opacity="1.000000" stroke="none" 
	d="
M812.999878,358.476562 
	C766.718018,358.476196 720.936096,358.476196 674.809937,358.476196 
	C674.809937,302.359924 674.809937,246.506210 674.809937,190.332428 
	C730.741882,190.332428 786.583069,190.332428 842.691772,190.332428 
	C842.691772,246.214630 842.691772,301.941925 842.691772,358.476959 
	C832.979187,358.476959 823.239563,358.476959 812.999878,358.476562 
M734.499756,338.812408 
	C739.826294,338.812408 745.174561,338.515686 750.472656,338.903748 
	C754.924561,339.229828 756.056396,337.740265 756.037292,333.341431 
	C755.865967,293.892426 755.937195,254.442383 755.937195,214.992645 
	C755.937195,213.393875 755.937195,211.795120 755.937195,210.146454 
	C735.003296,210.146454 714.807190,210.146454 694.631836,210.146454 
	C694.631836,253.188080 694.631836,295.836212 694.631836,338.812225 
	C707.895386,338.812225 720.697632,338.812225 734.499756,338.812408 
M786.500000,338.816589 
	C798.588928,338.816589 810.677856,338.816589 822.844727,338.816589 
	C822.844727,317.918457 822.844727,297.722748 822.844727,277.406494 
	C802.293457,277.406494 782.112000,277.406494 761.747742,277.406494 
	C761.747742,297.972961 761.747742,318.165741 761.747742,338.816437 
	C769.921204,338.816437 777.710632,338.816437 786.500000,338.816589 
M814.468872,271.342499 
	C817.229248,271.342499 819.989624,271.342499 822.736816,271.342499 
	C822.736816,250.391037 822.736816,230.221298 822.736816,210.138947 
	C802.206299,210.138947 782.149719,210.138947 762.100830,210.138947 
	C762.100830,230.697830 762.100830,250.869095 762.100830,271.342926 
	C779.545044,271.342926 796.509583,271.342926 814.468872,271.342499 
z"/>
<path fill="#5079B9" opacity="1.000000" stroke="none" 
	d="
M129.958893,188.958527 
	C164.418625,188.914932 198.878830,188.741470 233.337952,188.867172 
	C263.052216,188.975571 288.497772,210.324524 293.830994,239.222488 
	C299.324524,268.988831 282.906281,298.217682 254.661179,308.949738 
	C253.729126,309.303894 252.784927,309.626099 251.183044,309.877502 
	C250.015091,309.359863 249.478714,308.959717 249.010361,308.491486 
	C210.054184,269.546204 171.101822,230.597107 132.162369,191.635117 
	C131.349243,190.821518 130.689957,189.854141 129.958893,188.958527 
z"/>
<path fill="#79A4D3" opacity="1.000000" stroke="none" 
	d="
M1245.015015,212.954132 
	C1257.222900,223.428513 1264.091553,237.106018 1267.793579,252.380112 
	C1279.286011,299.797089 1246.749512,347.267090 1198.121582,353.754333 
	C1173.802002,356.998627 1152.123901,350.050720 1133.226807,334.466431 
	C1131.591064,333.117401 1130.305420,331.343750 1129.117920,329.305176 
	C1130.012695,328.308563 1130.690308,327.817566 1131.274780,327.233398 
	C1168.477783,290.049286 1205.674927,252.859406 1242.857178,215.654755 
	C1243.666748,214.844727 1244.299683,213.858276 1245.015015,212.954132 
z"/>
<path fill="#79A4D3" opacity="1.000000" stroke="none" 
	d="
M1031.004883,213.018982 
	C1043.303955,223.694855 1050.041992,237.623459 1053.750366,253.084335 
	C1064.622437,298.412048 1033.932129,344.936798 987.978149,353.002686 
	C960.969788,357.743195 937.361145,350.506805 916.913391,332.469727 
	C916.060364,331.717346 915.438171,330.703339 914.968201,329.348938 
	C915.989746,328.246887 916.804749,327.660400 917.505737,326.959839 
	C954.610840,289.878815 991.707886,252.789551 1028.792969,215.688354 
	C1029.606323,214.874588 1030.270874,213.912079 1031.004883,213.018982 
z"/>
<path fill="#A3D0EE" opacity="1.000000" stroke="none" 
	d="
M1030.864380,212.712936 
	C1030.270874,213.912079 1029.606323,214.874588 1028.792969,215.688354 
	C991.707886,252.789551 954.610840,289.878815 917.505737,326.959839 
	C916.804749,327.660400 915.989746,328.246887 914.865234,329.007996 
	C906.258850,323.382446 901.592712,314.830261 897.733215,306.078064 
	C886.085449,279.664429 887.256409,253.569473 902.215637,228.763626 
	C915.503845,206.728516 935.192566,193.493454 960.818787,189.862686 
	C987.681274,186.056778 1011.106018,193.469528 1030.864380,212.712936 
z"/>
<path fill="#A3D0EE" opacity="1.000000" stroke="none" 
	d="
M1244.879639,212.649963 
	C1244.299683,213.858276 1243.666748,214.844727 1242.857178,215.654755 
	C1205.674927,252.859406 1168.477783,290.049286 1131.274780,327.233398 
	C1130.690308,327.817566 1130.012695,328.308563 1129.035156,328.963501 
	C1125.946411,326.297729 1122.817993,323.793732 1120.521118,320.676910 
	C1109.958130,306.342773 1104.182983,290.006470 1104.268799,272.360352 
	C1104.470093,230.996109 1132.658936,196.453476 1173.909424,190.010544 
	C1201.033936,185.773972 1224.853516,193.100067 1244.879639,212.649963 
z"/>
<path fill="#79A4D3" opacity="1.000000" stroke="none" 
	d="
M129.608978,189.205460 
	C130.689957,189.854141 131.349243,190.821518 132.162369,191.635117 
	C171.101822,230.597107 210.054184,269.546204 249.010361,308.491486 
	C249.478714,308.959717 250.015091,309.359863 250.825745,309.951477 
	C251.131775,310.111145 251.060776,310.550446 250.625488,310.771851 
	C246.120773,311.666901 242.053207,312.911469 237.981613,312.924835 
	C201.709900,313.043915 165.437469,312.945496 129.165253,312.911163 
	C129.108322,273.248291 129.048447,233.585403 129.005905,193.922501 
	C129.004303,192.432571 129.170868,190.942444 129.608978,189.205460 
z"/>
<path fill="#517ABA" opacity="1.000000" stroke="none" 
	d="
M415.962585,327.000000 
	C415.962555,336.138092 415.962555,344.776215 415.962555,353.807587 
	C391.776184,353.807587 367.905731,353.807587 343.684326,353.807587 
	C343.684326,319.777008 343.684326,285.725067 343.684326,251.282288 
	C367.577698,251.282288 391.439362,251.282288 415.962585,251.282288 
	C415.962585,276.337372 415.962585,301.418671 415.962585,327.000000 
z"/>
<path fill="#A3D0EE" opacity="1.000000" stroke="none" 
	d="
M129.128052,313.385498 
	C165.437469,312.945496 201.709900,313.043915 237.981613,312.924835 
	C242.053207,312.911469 246.120773,311.666901 250.611023,310.993896 
	C264.876984,325.333405 278.722168,339.672302 292.270050,353.703339 
	C238.777832,353.703339 184.309113,353.703339 129.090866,353.703339 
	C129.090866,340.371124 129.090866,327.115479 129.128052,313.385498 
z"/>
<path fill="#A4D0EE" opacity="1.000000" stroke="none" 
	d="
M412.749237,230.019287 
	C389.488037,230.024246 366.701721,230.024246 343.516052,230.024246 
	C343.516052,216.237595 343.516052,202.883347 343.516052,189.228760 
	C367.536682,189.228760 391.287201,189.228760 415.388275,189.228760 
	C415.580994,190.259338 415.955383,191.342102 415.959686,192.426361 
	C416.004028,203.582947 416.084747,214.741653 415.867371,225.894150 
	C415.840271,227.284195 414.145905,228.641739 412.749237,230.019287 
z"/>
<path fill="#FDFEFE" opacity="1.000000" stroke="none" 
	d="
M733.999817,338.812317 
	C720.697632,338.812225 707.895386,338.812225 694.631836,338.812225 
	C694.631836,295.836212 694.631836,253.188080 694.631836,210.146454 
	C714.807190,210.146454 735.003296,210.146454 755.937195,210.146454 
	C755.937195,211.795120 755.937195,213.393875 755.937195,214.992645 
	C755.937195,254.442383 755.865967,293.892426 756.037292,333.341431 
	C756.056396,337.740265 754.924561,339.229828 750.472656,338.903748 
	C745.174561,338.515686 739.826294,338.812408 733.999817,338.812317 
z"/>
<path fill="#FCFDFE" opacity="1.000000" stroke="none" 
	d="
M786.000000,338.816528 
	C777.710632,338.816437 769.921204,338.816437 761.747742,338.816437 
	C761.747742,318.165741 761.747742,297.972961 761.747742,277.406494 
	C782.112000,277.406494 802.293457,277.406494 822.844727,277.406494 
	C822.844727,297.722748 822.844727,317.918457 822.844727,338.816589 
	C810.677856,338.816589 798.588928,338.816589 786.000000,338.816528 
z"/>
<path fill="#FDFEFE" opacity="1.000000" stroke="none" 
	d="
M813.971497,271.342712 
	C796.509583,271.342926 779.545044,271.342926 762.100830,271.342926 
	C762.100830,250.869095 762.100830,230.697830 762.100830,210.138947 
	C782.149719,210.138947 802.206299,210.138947 822.736816,210.138947 
	C822.736816,230.221298 822.736816,250.391037 822.736816,271.342499 
	C819.989624,271.342499 817.229248,271.342499 813.971497,271.342712 
z"/>
</svg>